PathFileType	4	(X/Y/Z)	path1_13_0-574.trc
DataRate	CameraRate	NumFrames	NumMarkers	Units	OrigDataRate	OrigDataStartFrame	OrigNumFrames
30	30	4	22	m	30	0	574
Frame#	Time	Hip			RHip			RKnee			RAnkle			RBigToe			RSmallToe			RHeel			LHip			LKnee			LAnkle			LBigToe			LSmallToe			LHeel			Neck			Head			Nose			RShoulder			RElbow			RWrist			LShoulder			LElbow			LWrist		
		X1	Y1	Z1	X2	Y2	Z2	X3	Y3	Z3	X4	Y4	Z4	X5	Y5	Z5	X6	Y6	Z6	X7	Y7	Z7	X8	Y8	Z8	X9	Y9	Z9	X10	Y10	Z10	X11	Y11	Z11	X12	Y12	Z12	X13	Y13	Z13	X14	Y14	Z14	X15	Y15	Z15	X16	Y16	Z16	X17	Y17	Z17	X18	Y18	Z18	X19	Y19	Z19	X20	Y20	Z20	X21	Y21	Z21	X22	Y22	Z22
1	0.0333333333333333	-2.52621909606835	0.8380951736892384	-0.5878880632888218	-2.5317030010379917	0.8248511653153812	-0.4961884807740199	-2.4997794443026105	0.4725287583402461	-0.48837624848304123	-2.5635051597604854	0.10257977740578514	-0.5127615241903549	-2.3699001231784087	0.02048474448843917	-0.477789846338153	-2.4285717447084623	0.020448912208911436	-0.4289991461268526	-2.606608838211167	0.03925877465841226	-0.5148636120770131	-2.5186238614903536	0.819129808829227	-0.6697447573381348	-2.518797537377475	0.4428792597622026	-0.6588308286509986	-2.5657416248118343	0.09807452167498563	-0.6522500757817244	-2.382457477732282	0.01734539383969834	-0.6699752420930468	-2.422434716653971	0.021004270622356172	-0.7321928955081759	-2.6140751261856994	0.043923737081211604	-0.6567985061782281	-2.498055433575723	1.470679180458536	-0.62391793315267	-2.442800053777076	1.7443460792244256	-0.581310650750204	-2.363398399722602	1.6010523254900522	-0.5930086278695095	-2.539085597377159	1.3821315098397977	-0.44859775051711404	-2.5669212747139616	1.0825559568920176	-0.42496805897276346	-2.5301690606523533	0.8481043553683146	-0.3871654340285118	-2.4882323204341774	1.3442752359165928	-0.7883010164480947	-2.5485821551832153	1.067696670963878	-0.8049370334702606	-2.543143186042246	0.8280716005422432	-0.8010860120487829
2	0.0666666666666666	-2.522754724989369	0.839200064599625	-0.5868329796540097	-2.5285105002324775	0.8190416470890621	-0.5019111877766297	-2.4999644166918906	0.47352294585890736	-0.48857333588848434	-2.558929958151829	0.10527771063899274	-0.506007829882354	-2.370377180392689	0.026145465334225612	-0.4800101047114995	-2.421261802425143	0.022285342726122315	-0.42577331783597633	-2.605392869621177	0.03779529381492136	-0.5148555043038953	-2.5161213054696465	0.8151279003159755	-0.670623882386632	-2.5200275206983633	0.442742261006261	-0.6567546677987001	-2.564559980699399	0.09578910211885562	-0.651103317993637	-2.3849026726663554	0.01812878527673745	-0.6708198805895373	-2.42095984521153	0.02172488931931206	-0.7274428062303144	-2.608167788138422	0.04028003906776435	-0.6560086426709428	-2.496812755093658	1.4712002979910852	-0.6203384718759205	-2.4470993872336297	1.7369645919921888	-0.5779329832539298	-2.3626130213642726	1.6017399955169043	-0.5928824196083241	-2.5393227378722654	1.3783599867279768	-0.4439672205927766	-2.561810895261349	1.0813342084249802	-0.4149454087787956	-2.529117669827267	0.8480424638215602	-0.38445981340941454	-2.490159787218754	1.3458546881843554	-0.7859015807125364	-2.54657534736069	1.0691882336078742	-0.8014464583039682	-2.5425411515182335	0.8313492387515008	-0.7954377916132238
3	0.1	-2.519845695618361	0.8400227803812182	-0.5859927620619103	-2.5258250244979212	0.8142744719454001	-0.5064619041448608	-2.500082705264644	0.4742309837153212	-0.488691645801235	-2.55624190169348	0.10663139301318326	-0.5023842990714904	-2.370520732626421	0.030486312150261975	-0.48174050132480356	-2.415413594577236	0.02378912371445348	-0.42321754785830645	-2.604672223788429	0.03653074234810783	-0.5151529464010336	-2.513980956195513	0.811880103171406	-0.6713511983650853	-2.5211159886617853	0.44284272774815836	-0.6550463860712182	-2.5637954948227897	0.09410501431146888	-0.6502211636105442	-2.386947967672913	0.018668975535050033	-0.6714215396774585	-2.4201863434605526	0.02246966868178196	-0.7241749685450478	-2.6041169378433655	0.03725288724896303	-0.6558185753584456	-2.495749243032236	1.4715912681260779	-0.6172199188991141	-2.45056913650416	1.7310961999884769	-0.5749447848661604	-2.361939902773705	1.602422002098506	-0.5925890274321778	-2.5391072671172825	1.3744372734481718	-0.43908493743174765	-2.557069676445012	1.080384384078035	-0.4057248637659422	-2.528170841014938	0.8479138241767057	-0.38229875175572986	-2.491693476180607	1.3471224830914774	-0.7839528722219489	-2.5449366103899953	1.0704119293817969	-0.7984660097252558	-2.5420340082357757	0.8339518371022379	-0.7908862685231688
4	0.1333333333333333	-2.5178500371580563	0.840433703965866	-0.585446565962378	-2.5239770737362366	0.8111428326676129	-0.5093149801910007	-2.5000850537458725	0.4745668711344504	-0.4887011889060109	-2.5562261452678925	0.10612568010259926	-0.5031182151194599	-2.3700809310052917	0.03291723465596644	-0.48273546716842247	-2.411568558024103	0.024853381134880476	-0.42162352818938464	-2.6045643557770424	0.03559442153975461	-0.5157363880104567	-2.51250059514089	0.8098258669301776	-0.6718800057396458	-2.5220063068124094	0.4432037830954615	-0.6538971567145255	-2.5636743647298235	0.09318821061693221	-0.6496883633157858	-2.388472457013045	0.01895140895780499	-0.6719225053560126	-2.4203764279320525	0.023180415604171178	-0.7228717040760122	-2.602748377567207	0.03504097497882632	-0.6564490075455304	-2.4950193895003556	1.4717749634238853	-0.6148849915295009	-2.452750861181227	1.7274961246611684	-0.5727502583085956	-2.361484033433654	1.6029843908767234	-0.592193864918631	-2.5381993520048334	1.370330057044977	-0.4338045286484987	-2.5529470287785165	1.0797979183574589	-0.3977603690339622	-2.5273851121031377	0.8476530816729706	-0.38091413873136576	-2.492737427961446	1.347951397837834	-0.7827323074514226	-2.543862843680872	1.0712643565701219	-0.7962616660776315	-2.5416545948989047	0.8355705246639108	-0.7879210746968317
